HIERARCHY
ROOT Hips
{
	OFFSET 0.000000 89.005402 0.000000
	CHANNELS 6 Xposition Yposition Zposition Xrotation Yrotation Zrotation
	JOINT Spine
	{
		OFFSET 0.116900 10.681000 0.373400
		CHANNELS 3 Xrotation Yrotation Zrotation
		JOINT Spine1
		{
			OFFSET 0.000000 13.840401 0.053500
			CHANNELS 3 Xrotation Yrotation Zrotation
			JOINT Spine2
			{
				OFFSET 0.000000 14.712700 -0.366200
				CHANNELS 3 Xrotation Yrotation Zrotation
				JOINT Neck
				{
					OFFSET 0.000000 35.415497 -3.314200
					CHANNELS 3 Xrotation Yrotation Zrotation
					JOINT Head
					{
						OFFSET 0.000000 16.899200 1.218300
						CHANNELS 3 Xrotation Yrotation Zrotation
						JOINT HeadTop_End
						{
							OFFSET 0.000000 22.206207 2.192500
							CHANNELS 3 Xrotation Yrotation Zrotation
							End Site
							{
								OFFSET 0.000000 22.314178 0.000000
							}
						}
					}
				}
				JOINT LeftShoulder
				{
					OFFSET 12.896400 26.716293 -4.548400
					CHANNELS 3 Xrotation Yrotation Zrotation
					JOINT LeftArm
					{
						OFFSET 19.027000 -4.857010 -1.718400
						CHANNELS 3 Xrotation Yrotation Zrotation
						JOINT LeftForeArm
						{
							OFFSET 24.179897 0.000000 0.000000
							CHANNELS 3 Xrotation Yrotation Zrotation
							JOINT LeftHand
							{
								OFFSET 27.156403 0.000000 0.000000
								CHANNELS 3 Xrotation Yrotation Zrotation
								JOINT LeftHandIndex1
								{
									OFFSET 16.441200 0.000000 0.000000
									CHANNELS 3 Xrotation Yrotation Zrotation
									JOINT LeftHandIndex2
									{
										OFFSET 4.821899 0.000000 0.000000
										CHANNELS 3 Xrotation Yrotation Zrotation
										JOINT LeftHandIndex3
										{
											OFFSET 6.386497 0.000000 0.000000
											CHANNELS 3 Xrotation Yrotation Zrotation
											JOINT LeftHandIndex4
											{
												OFFSET 5.188988 0.000000 0.000000
												CHANNELS 3 Xrotation Yrotation Zrotation
												End Site
												{
													OFFSET -0.178703 5.185913 0.000177
												}
											}
										}
									}
								}
								JOINT LeftHandThumb1
								{
									OFFSET 6.534897 -5.032593 5.900300
									CHANNELS 3 Xrotation Yrotation Zrotation
									JOINT LeftHandThumb2
									{
										OFFSET 3.818176 -2.204422 2.204423
										CHANNELS 3 Xrotation Yrotation Zrotation
										JOINT LeftHandThumb3
										{
											OFFSET 3.252098 -1.877594 1.877601
											CHANNELS 3 Xrotation Yrotation Zrotation
											JOINT LeftHandThumb4
											{
												OFFSET 5.251778 -3.032120 3.032117
												CHANNELS 3 Xrotation Yrotation Zrotation
												End Site
												{
													OFFSET 0.000023 6.780014 0.000000
												}
											}
										}
									}
								}
							}
						}
					}
				}
				JOINT RightShoulder
				{
					OFFSET -12.896300 26.716293 -4.548400
					CHANNELS 3 Xrotation Yrotation Zrotation
					JOINT RightArm
					{
						OFFSET -19.027000 -4.857010 -1.718400
						CHANNELS 3 Xrotation Yrotation Zrotation
						JOINT RightForeArm
						{
							OFFSET -24.179897 0.000000 0.000000
							CHANNELS 3 Xrotation Yrotation Zrotation
							JOINT RightHand
							{
								OFFSET -27.156403 0.000000 0.000000
								CHANNELS 3 Xrotation Yrotation Zrotation
								JOINT RightHandThumb1
								{
									OFFSET -6.591202 -4.852203 5.988100
									CHANNELS 3 Xrotation Yrotation Zrotation
									JOINT RightHandThumb2
									{
										OFFSET -3.818176 -2.204422 2.204423
										CHANNELS 3 Xrotation Yrotation Zrotation
										JOINT RightHandThumb3
										{
											OFFSET -3.252098 -1.877594 1.877601
											CHANNELS 3 Xrotation Yrotation Zrotation
											JOINT RightHandThumb4
											{
												OFFSET -5.251778 -3.032120 3.032117
												CHANNELS 3 Xrotation Yrotation Zrotation
												End Site
												{
													OFFSET -0.000023 6.780014 0.000000
												}
											}
										}
									}
								}
								JOINT RightHandIndex1
								{
									OFFSET -16.029404 0.000000 0.000000
									CHANNELS 3 Xrotation Yrotation Zrotation
									JOINT RightHandIndex2
									{
										OFFSET -5.213303 0.000000 0.000000
										CHANNELS 3 Xrotation Yrotation Zrotation
										JOINT RightHandIndex3
										{
											OFFSET -6.386528 0.000000 0.000000
											CHANNELS 3 Xrotation Yrotation Zrotation
											JOINT RightHandIndex4
											{
												OFFSET -5.189026 0.000000 0.000000
												CHANNELS 3 Xrotation Yrotation Zrotation
												End Site
												{
													OFFSET 0.236702 5.183624 0.001972
												}
											}
										}
									}
								}
							}
						}
					}
				}
			}
		}
	}
	JOINT LeftUpLeg
	{
		OFFSET 14.073000 -7.904099 -1.463000
		CHANNELS 3 Xrotation Yrotation Zrotation
		JOINT LeftLeg
		{
			OFFSET -0.109806 -34.073280 4.093200
			CHANNELS 3 Xrotation Yrotation Zrotation
			JOINT LeftFoot
			{
				OFFSET 0.109806 -29.899420 -6.319000
				CHANNELS 3 Xrotation Yrotation Zrotation
				JOINT LeftToeBase
				{
					OFFSET 1.551100 -14.988700 20.535801
					CHANNELS 3 Xrotation Yrotation Zrotation
					JOINT LeftToe_End
					{
						OFFSET 0.221200 0.570800 13.248301
						CHANNELS 3 Xrotation Yrotation Zrotation
						End Site
						{
							OFFSET 0.000000 13.262435 0.000000
						}
					}
				}
			}
		}
	}
	JOINT RightUpLeg
	{
		OFFSET -13.839300 -7.904099 -1.463000
		CHANNELS 3 Xrotation Yrotation Zrotation
		JOINT RightLeg
		{
			OFFSET 0.109694 -34.073219 4.093300
			CHANNELS 3 Xrotation Yrotation Zrotation
			JOINT RightFoot
			{
				OFFSET -0.109694 -29.899384 -6.319200
				CHANNELS 3 Xrotation Yrotation Zrotation
				JOINT RightToeBase
				{
					OFFSET -1.551100 -14.988700 20.535801
					CHANNELS 3 Xrotation Yrotation Zrotation
					JOINT RightToe_End
					{
						OFFSET -0.221200 0.570900 13.248299
						CHANNELS 3 Xrotation Yrotation Zrotation
						End Site
						{
							OFFSET 0.000000 13.262440 0.000000
						}
					}
				}
			}
		}
	}
}
MOTION
Frames: 4
Frame Time: 0.033333
-0.070045 83.764297 -0.194546 -16.922012 -39.065981 -9.080593 7.991324 -0.013221 -0.472596 16.413455 -0.125505 -0.745995 16.413513 -0.192919 -0.721090 0.367406 7.480961 0.837547 -6.982133 21.597266 11.883000 -0.000000 0.000001 -0.000001 -37.571074 -4.822520 1.545820 -41.628439 -7.015788 -61.684374 0.000027 -64.995875 0.000032 -119.359618 1.120081 32.550243 -0.212819 3.933717 -36.747128 2.942132 5.078898 -60.144610 0.513684 2.400832 -24.150509 -0.000003 0.000001 -0.000003 4.709222 9.560375 3.111992 19.473185 -1.474926 7.636928 -4.536192 -9.613095 1.492978 -0.000000 -0.000002 0.000001 -41.176287 -8.605645 -9.942309 -46.819710 58.242963 100.948727 0.000292 98.442963 -0.000318 -52.463093 -17.216627 -29.273105 8.377142 -4.904147 11.022012 21.620170 -18.183888 -18.379214 -0.702861 -49.821213 -32.535142 -0.000001 -0.000003 -0.000001 -0.920030 1.683585 12.434989 0.748116 -2.533470 32.898293 0.615653 -2.316054 29.767832 0.000000 -0.000000 -0.000001 -18.709855 43.815438 27.910421 25.269904 -0.336482 -0.871480 -1.423945 1.761446 -4.569015 0.000004 0.000005 -0.000002 0.000000 -0.000001 -0.000000 8.382847 5.054236 -7.144634 30.183914 0.093669 1.154855 -23.772260 -17.930718 4.968604 -0.020498 -0.000007 -0.000001 -0.000000 -0.000000 0.000000 
0.001265 83.704697 -0.250813 -16.934069 -39.117514 -9.276532 8.118618 0.046718 -0.321155 16.428447 -0.106388 -0.718760 16.428680 -0.175297 -0.693123 0.348272 7.500880 0.822264 -7.051475 21.769292 11.928071 -0.000000 0.000000 0.000001 -37.583403 -4.655039 1.574888 -41.913207 -7.255558 -61.859302 0.000017 -64.811979 0.000025 -119.333213 1.060827 32.465955 -0.212819 3.933717 -36.747128 2.942128 5.078908 -60.144610 0.513674 2.400832 -24.150507 0.000002 0.000001 0.000000 4.709221 9.560374 3.111992 19.473187 -1.474927 7.636929 -4.536190 -9.613094 1.492975 0.000002 0.000000 -0.000000 -41.177896 -8.672619 -9.958184 -46.929936 58.273760 100.749347 0.000100 98.438257 -0.000089 -52.599065 -17.109694 -29.202074 8.377139 -4.904148 11.022013 21.620170 -18.183890 -18.379209 -0.702857 -49.821203 -32.535138 0.000000 -0.000001 -0.000002 -0.920031 1.683585 12.434989 0.748117 -2.533470 32.898293 0.615653 -2.316055 29.767832 0.000000 -0.000000 -0.000000 -19.181201 43.618425 28.332603 25.729266 -0.280744 -0.873555 -1.615505 1.769170 -4.552927 -0.000025 0.000005 -0.000006 -0.000000 -0.000000 -0.000000 8.189116 5.177490 -6.959862 30.354385 0.093257 1.180370 -23.764194 -17.941047 4.957966 0.090034 0.000017 0.000002 0.000000 0.000002 -0.000000 
0.105881 83.536316 -0.355852 -17.027248 -39.227419 -9.696997 8.379968 0.152510 -0.032237 16.443001 -0.070903 -0.662376 16.443581 -0.142588 -0.635449 0.309630 7.521114 0.789008 -7.164016 21.930655 11.904239 0.000000 0.000000 -0.000002 -37.586456 -4.506207 1.605057 -42.279663 -7.438684 -62.056968 -0.000047 -64.448955 -0.000054 -119.342543 1.081915 32.231987 -0.212819 3.933714 -36.747128 2.942129 5.078906 -60.144610 0.513678 2.400832 -24.150506 -0.000005 -0.000000 0.000000 4.709222 9.560377 3.111992 19.473187 -1.474923 7.636927 -4.536189 -9.613094 1.492979 0.000002 -0.000003 -0.000000 -41.182045 -8.728294 -9.977817 -47.211695 58.320274 100.650501 0.000654 98.296053 -0.000606 -52.681717 -17.005995 -29.101199 8.377139 -4.904148 11.022011 21.620172 -18.183886 -18.379211 -0.702862 -49.821206 -32.535138 0.000003 -0.000001 0.000002 -0.920030 1.683585 12.434992 0.748117 -2.533470 32.898293 0.615654 -2.316055 29.767836 0.000000 -0.000000 0.000001 -20.135965 43.183929 29.253915 26.823312 -0.185152 -0.877516 -2.094917 1.788689 -4.567240 -0.000081 -0.000004 0.000004 -0.000000 0.000000 0.000000 7.813998 5.559975 -6.538373 30.895046 -0.023504 1.189873 -23.883336 -17.996927 4.976596 0.274322 0.000003 -0.000000 0.000000 -0.000000 0.000000 
0.215654 83.296112 -0.495494 -17.229654 -39.464235 -10.208722 8.717573 0.373242 0.259597 16.457336 -0.004008 -0.604495 16.458295 -0.079145 -0.576635 0.251125 7.525423 0.755906 -7.419902 22.003828 11.772684 -0.000000 -0.000000 0.000003 -37.583420 -4.380608 1.645569 -42.682593 -7.631545 -62.191932 0.000025 -64.100123 0.000014 -119.417689 1.079310 31.993118 -0.212819 3.933715 -36.747128 2.942127 5.078904 -60.144610 0.513677 2.400831 -24.150507 -0.000000 0.000000 -0.000002 4.709222 9.560375 3.111991 19.473190 -1.474925 7.636928 -4.536191 -9.613096 1.492978 -0.000001 -0.000003 -0.000000 -41.186888 -8.745020 -9.991939 -47.538448 58.349343 100.521984 0.000129 98.162017 -0.000119 -52.779703 -16.909907 -29.037702 8.377140 -4.904148 11.022014 21.620168 -18.183890 -18.379213 -0.702859 -49.821206 -32.535138 -0.000000 -0.000001 -0.000001 -0.920030 1.683585 12.434990 0.748117 -2.533471 32.898293 0.615654 -2.316053 29.767832 0.000000 0.000000 0.000002 -21.145996 42.673495 30.306116 28.182284 0.007869 -0.885809 -2.700994 1.818618 -4.646942 -0.000043 0.000004 -0.000002 -0.000000 0.000001 -0.000000 7.299822 6.176511 -6.009015 31.779914 -0.230878 1.083615 -24.119546 -18.101477 5.076309 0.487226 0.000003 0.000001 -0.000000 -0.000000 0.000000 
